<?xml version="1.0" encoding="UTF-8"?>
<svg width="18px" height="18px" viewBox="0 0 18 18" version="1.1" xmlns="http://www.w3.org/2000/svg" xmlns:xlink="http://www.w3.org/1999/xlink">
    <title>jianhaoshouqi</title>
    <g id="页面-1" stroke="none" stroke-width="1" fill="none" fill-rule="evenodd">
        <g id="策略项目管理" transform="translate(-423.000000, -176.000000)" fill="#FFFFFF" fill-rule="nonzero">
            <g id="策略1" transform="translate(239.000000, 169.000000)">
                <g id="编组-12" transform="translate(184.000000, 7.000000)">
                    <g id="jianhaoshouqi" transform="translate(1.000000, 1.000000)">
                        <path d="M13.9987592,16 L1.99925549,16 C0.899367167,16 0,15.1006328 0,14.0007445 L0,1.99925549 C0,0.899367167 0.899367167,0 1.99925549,0 L14.0007445,0 C15.1006328,0 16,0.899367167 16,1.99925549 L16,14.0007445 C16,15.0986475 15.1006328,16 13.9987592,16 Z M1.99925549,0.998635066 C1.39967738,0.998635066 0.998635066,1.39769202 0.998635066,1.99925549 L0.998635066,14.0007445 C0.998635066,14.6003226 1.39769202,15.0013649 1.99925549,15.0013649 L14.0007445,15.0013649 C14.6003226,15.0013649 15.0013649,14.602308 15.0013649,14.0007445 L15.0013649,1.99925549 C15.0013649,1.39967738 14.602308,0.998635066 14.0007445,0.998635066 L1.99925549,0.998635066 Z M11.9995037,8.49931753 L3.99851098,8.49931753 C3.69872193,8.49931753 3.49820077,8.29879638 3.49820077,7.99900732 C3.49820077,7.69921827 3.69872193,7.49869711 3.99851098,7.49869711 L11.9995037,7.49869711 C12.2992927,7.49869711 12.4998139,7.69921827 12.4998139,7.99900732 C12.4998139,8.29879638 12.2992927,8.49931753 11.9995037,8.49931753 Z" id="形状"></path>
                    </g>
                </g>
            </g>
        </g>
    </g>
</svg>
