<?xml version="1.0" standalone="no"?><!DOCTYPE svg PUBLIC "-//W3C//DTD SVG 1.1//EN" "http://www.w3.org/Graphics/SVG/1.1/DTD/svg11.dtd"><svg t="1715757338442" class="icon" viewBox="0 0 1024 1024" version="1.1" xmlns="http://www.w3.org/2000/svg" p-id="1490" xmlns:xlink="http://www.w3.org/1999/xlink" width="16" height="16"><path d="M635.9 935.8c-23.5 0-46.6-10-61.7-26.6-15.4-16.9-47.6-41.4-65.5-41.4-17.2 0-49.5 23.6-65.1 40.6-15.1 16.4-38 26.2-61.3 26.2-11.3 0-22.1-2.2-32-6.6l-1.1-0.5c-0.9-0.4-1.8-0.8-2.7-1.3L244.2 869c-0.9-0.5-1.7-1-2.5-1.6l-1-0.7c-14.8-10.3-25.5-25.7-30.4-43.3-4.9-17.6-3.6-36.2 3.6-52.6 1.8-4.3 6.9-18.7 6.9-29.5 0-43.3-35.2-78.5-78.5-78.5H138c-16.8 0-32.6-7.2-44.6-20.3-10.1-11-17.2-25.9-20.4-42.9-1-5.1-9.2-50.5-9.2-87.3 0-37.2 8.3-82.3 9.2-87.3 7.3-38.4 33.7-63.8 66-63.2h3.3c43.3 0 78.5-35.2 78.5-78.5 0-10.8-5.1-25.2-6.9-29.5-7.2-16.4-8.5-35.1-3.6-52.7s15.8-33 30.6-43.3l1.1-0.8c0.9-0.6 1.7-1.1 2.6-1.6l108-59.3c0.9-0.5 1.8-0.9 2.7-1.3l1.1-0.5c9.8-4.2 20.4-6.3 31.5-6.3 23.4 0 45.6 9.3 61 25.5 15.1 15.8 46.7 38.8 64.1 38.8 17.2 0 48.6-22.5 63.7-38.1 15-15.6 37.7-25 60.5-25 11.3 0 22.1 2.2 32.1 6.5l1.1 0.5c0.9 0.4 1.7 0.8 2.6 1.3l104.3 57.9c0.9 0.5 1.8 1.1 2.7 1.7l1 0.7c14.7 10.2 25.5 25.6 30.4 43.3 4.9 17.6 3.6 36.2-3.6 52.6-1.9 4.4-7 18.8-7 29.5 0 43.3 35.2 78.5 78.5 78.5h4.3c31.8 0 57.8 25.2 65 63.2 1 5.1 9.2 50.3 9.2 87.3 0 38.6-8.9 85.4-9.3 87.4-7.2 38.2-33.7 63.6-65.9 63.1h-3.4c-43.3 0-78.5 35.2-78.5 78.5 0 10.8 5.1 25.2 7 29.5 7.2 16.3 8.5 35 3.6 52.6s-15.7 33-30.4 43.2l-1 0.7c-0.9 0.6-1.8 1.2-2.7 1.7l-106.1 58.6c-0.8 0.5-1.7 0.9-2.6 1.3l-1.1 0.5h-0.1c-9.6 4.4-20.2 6.5-31.4 6.5z m-127.2-128c53.7 0 107.7 58.5 109.9 61 3.9 4.3 10.6 7 17.3 7 2.8 0 5.3-0.5 7.6-1.4l103.4-57.1c6.7-4.8 9.5-14.8 6.1-22.4-0.5-1.1-12-27.5-12-53.7 0-76.3 62.1-138.5 138.5-138.5H883.3c1.2-0.9 4.8-5 6.6-14.3 2.3-12 8.2-48.9 8.2-76.2 0-32.1-7.9-74.4-8.2-76.2-1.8-9.3-5.3-13.4-6.5-14.3H879.6c-76.3 0-138.5-62.1-138.5-138.5 0-24.3 9.8-48.5 11.8-53.2 0.1-0.1 0.1-0.3 0.2-0.4 3.4-7.6 0.6-17.6-6.1-22.4l-101.6-56.5c-2.3-1-5-1.5-8-1.5-6.6 0-13.5 2.6-17.3 6.6-2.3 2.4-55.3 56.4-106.9 56.4-52.1 0-105.3-55.1-107.6-57.5-4-4.2-10.9-6.9-17.6-6.9-2.9 0-5.5 0.5-7.8 1.4L274.9 207c-6.7 4.8-9.4 14.8-6.1 22.3 1.3 3 12 28.2 12 53.7 0 76.3-62.1 138.5-138.5 138.5H138.5c-1.2 0.9-4.8 5-6.5 14.3-0.3 1.8-8.2 43.9-8.2 76.2 0 32 7.9 74.4 8.2 76.2 1.8 9.3 5.3 13.4 6.5 14.3H142.3c76.3 0 138.5 62.1 138.5 138.5 0 25.6-10.9 51.1-12 53.7-3.4 7.6-0.6 17.5 6 22.4l99.7 55.8c2.3 1 4.9 1.5 7.8 1.5 6.6 0 13.3-2.7 17.1-6.8 7.8-8.4 23.1-22.5 40.8-34.5 24.9-16.7 47.9-25.3 68.5-25.3z m-294.6-37.4s-0.1 0.1-0.2 0.4c0 0 0-0.1 0.1-0.1 0-0.2 0-0.3 0.1-0.3z m-0.2-516.6l0.2 0.4c0-0.1-0.1-0.2-0.1-0.3-0.1 0-0.1 0-0.1-0.1z m295.2 432.4c-96.2 0-174.4-78.3-174.4-174.4 0-96.2 78.3-174.4 174.4-174.4 96.2 0 174.4 78.3 174.4 174.4 0 96.1-78.2 174.4-174.4 174.4z m0-288.9c-63.1 0-114.4 51.3-114.4 114.4 0 63.1 51.3 114.4 114.4 114.4 63.1 0 114.4-51.3 114.4-114.4 0-63-51.3-114.4-114.4-114.4z" fill="" p-id="1491"></path></svg>