<?xml version="1.0" encoding="UTF-8"?>
<svg width="24px" height="24px" viewBox="0 0 24 24" version="1.1" xmlns="http://www.w3.org/2000/svg" xmlns:xlink="http://www.w3.org/1999/xlink">
    <title>edu</title>
    <g id="页面-1" stroke="none" stroke-width="1" fill="none" fill-rule="evenodd">
        <g id="策略项目管理" transform="translate(-1374.000000, -275.000000)" fill="#0086FF" fill-rule="nonzero">
            <g id="流程控制" transform="translate(1268.000000, 196.000000)">
                <g id="额度" transform="translate(94.000000, 79.000000)">
                    <g id="编组" transform="translate(12.000000, 2.000000)">
                        <g id="额度管理" transform="translate(0.000000, 1.150000)">
                            <path d="M10.5733045,18.1305479 L2.37958842,18.1305479 C1.0681708,18.1305479 0,17.0506804 0,15.7249025 L0,2.40564546 C0,1.07986752 1.0681708,1.45338287e-14 2.37958842,1.45338287e-14 L19.4385934,1.45338287e-14 C20.750011,1.45338287e-14 21.8181818,1.07986752 21.8181818,2.40564546 L21.8181818,7.12605643 C21.8181818,7.56976437 21.4638875,7.92793825 21.0249857,7.92793825 C20.5860838,7.92793825 20.2317895,7.56976437 20.2317895,7.12605643 L20.2317895,2.40564546 C20.2317895,1.96461046 19.8748513,1.60376364 19.4385934,1.60376364 L2.37958842,1.60376364 C1.94333054,1.60376364 1.58639228,1.96461046 1.58639228,2.40564546 L1.58639228,15.7249025 C1.58639228,16.1659375 1.94333054,16.5267843 2.37958842,16.5267843 L10.5733045,16.5267843 C11.0122064,16.5267843 11.3665007,16.8849582 11.3665007,17.3286661 C11.3665007,17.7723741 11.0122064,18.1305479 10.5733045,18.1305479 Z M14.9610229,6.00876777 L4.04706268,6.00876777 C3.58406309,6.00876777 3.21031643,5.65059389 3.21031643,5.20688595 C3.21031643,4.76317801 3.58406309,4.40500413 4.04706268,4.40500413 L14.9610229,4.40500413 C15.4240225,4.40500413 15.7977691,4.76317801 15.7977691,5.20688595 C15.7977691,5.65059389 15.4240225,6.00876777 14.9610229,6.00876777 Z M10.9697433,9.60387126 L3.96896636,9.60387126 C3.50596677,9.60387126 3.13222011,9.24569738 3.13222011,8.80198944 C3.13222011,8.3582815 3.50596677,8.00010762 3.96896636,8.00010762 L10.9697433,8.00010762 C11.4327429,8.00010762 11.8064895,8.3582815 11.8064895,8.80198944 C11.8064895,9.24569738 11.4327429,9.60387126 10.9697433,9.60387126 Z M17.822695,16.4359044 L17.822695,15.5164132 L16.6791418,15.5164132 C16.4532204,15.4977026 16.3277084,15.3881121 16.3081843,15.1903146 C16.3277084,14.9925171 16.4532204,14.8829266 16.6791418,14.864216 L17.822695,14.864216 L17.822695,14.3617034 L16.6791418,14.3617034 C16.4532204,14.3429928 16.3277084,14.2334023 16.3081843,14.0356048 C16.3277084,13.8378073 16.4532204,13.7282167 16.6791418,13.7095062 L17.3290148,13.7095062 L16.338865,12.3757094 C16.2551904,12.2768107 16.2161423,12.1672201 16.2161423,12.0496108 C16.2579796,11.7128204 16.4532204,11.5257147 16.8046538,11.4856206 C17.0110512,11.5043312 17.1644547,11.5845193 17.2676534,11.7235122 L18.4112066,13.2952006 L19.5547598,11.7235122 C19.6579585,11.5845193 19.811362,11.5070041 20.0177594,11.4856206 C20.3691928,11.5257147 20.5644336,11.7128204 20.6062709,12.0496108 C20.6062709,12.1672201 20.5644336,12.2768107 20.4835481,12.3757094 L19.4933984,13.7095062 L20.1432713,13.7095062 C20.3691928,13.7282167 20.4947047,13.8378073 20.5142288,14.0356048 C20.4947047,14.2334023 20.3691928,14.3429928 20.1432713,14.3617034 L18.9997181,14.3617034 L18.9997181,14.864216 L20.1432713,14.864216 C20.3691928,14.8829266 20.4947047,14.9925171 20.5142288,15.1903146 C20.4947047,15.3881121 20.3691928,15.4977026 20.1432713,15.5164132 L18.9997181,15.5164132 L18.9997181,16.4359044 C18.980194,16.7726947 18.7821641,16.938417 18.4112066,16.938417 C18.0402491,16.938417 17.8422191,16.7726947 17.822695,16.4359044 Z M18.4084174,19.3146601 C15.3849743,19.3146601 12.9221512,16.9571275 12.9221512,14.0569883 C12.9221512,11.156849 15.3849743,8.80198944 18.4084174,8.80198944 C21.4318605,8.80198944 23.8946836,11.159522 23.8946836,14.0596612 C23.8946836,16.9598005 21.4346497,19.3146601 18.4084174,19.3146601 Z M18.4084174,10.4057531 C16.3053952,10.4057531 14.5956437,12.0442649 14.5956437,14.0596612 C14.5956437,16.0750575 16.3053952,17.7135694 18.4084174,17.7135694 C20.5114396,17.7135694 22.2211911,16.0750575 22.2211911,14.0596612 C22.2211911,12.0442649 20.5114396,10.4057531 18.4084174,10.4057531 L18.4084174,10.4057531 Z" id="形状"></path>
                        </g>
                    </g>
                </g>
            </g>
        </g>
    </g>
</svg>