<?xml version="1.0" encoding="UTF-8"?>
<svg width="24px" height="24px" viewBox="0 0 24 24" version="1.1" xmlns="http://www.w3.org/2000/svg" xmlns:xlink="http://www.w3.org/1999/xlink">
    <title>fanqizha</title>
    <g id="页面-1" stroke="none" stroke-width="1" fill="none" fill-rule="evenodd">
        <g id="策略项目管理" transform="translate(-1292.000000, -222.000000)">
            <g id="流程控制" transform="translate(1268.000000, 196.000000)">
                <g id="反欺诈" transform="translate(6.000000, 26.000000)">
                    <g id="编组" transform="translate(18.000000, 1.000000)">
                        <g id="编组" transform="translate(1.200000, 1.150000)">
                            <ellipse id="椭圆形" stroke="#0086FF" stroke-width="1.6" cx="10.8" cy="10.35" rx="10.8" ry="10.35"></ellipse>
                            <line x1="3.78" y1="17.0775" x2="17.82" y2="3.6225" id="直线" stroke="#0086FF" stroke-width="1.6" stroke-linecap="square"></line>
                            <polygon id="矩形" fill="#FFFFFF" points="9.03109034 7.245 12.42 7.245 12.5605392 13.3166088 9.16157504 13.455"></polygon>
                            <path d="M11.9099557,11.8317068 L11.7596378,6.61467277 C12.3509063,6.28197284 12.7467075,5.68161768 12.7467075,4.99777602 C12.7467075,3.95407017 11.8256046,3.105 10.6933537,3.105 C9.56110286,3.105 8.64,3.95407017 8.64,4.99777602 C8.64,5.68660195 9.04120829,6.29019688 9.63950609,6.62140153 L9.83254027,13.3274858 C9.84308415,13.694328 10.076131,14.0245358 10.4351638,14.1830355 C10.7943964,14.3412393 11.2195091,14.300522 11.535783,14.0776182 C12.7507628,13.2210717 13.6126577,14.0803596 13.707012,14.1810418 C14.307743,14.8240125 14.0874028,15.5524633 13.6805171,16.0197385 C13.2363222,16.5296292 12.3706423,16.9540397 11.3933054,16.4705656 C10.8766551,16.2148726 10.2351003,16.3943063 9.95825581,16.8693071 C9.68141127,17.3448063 9.87525652,17.9371867 10.3908254,18.192132 C10.9877714,18.4874499 11.6263523,18.63 12.2568224,18.63 C13.4158386,18.63 14.5459266,18.1472736 15.3337439,17.2423796 C16.4965451,15.9068448 16.4878937,14.1638461 15.3126562,12.9060659 C14.4183186,11.9485879 13.2100976,11.5677897 11.9099557,11.8317068 L11.9099557,11.8317068 Z M9.72,4.08028846 C9.75649806,4.08028846 9.78623722,4.10964385 9.78623722,4.14567093 C9.78623722,4.21772508 9.65376278,4.21772508 9.65376278,4.14567093 C9.65376278,4.10964385 9.68350194,4.08028846 9.72,4.08028846 Z" id="形状" fill="#0086FF" fill-rule="nonzero"></path>
                        </g>
                    </g>
                </g>
            </g>
        </g>
    </g>
</svg>