<?xml version="1.0" encoding="UTF-8"?>
<svg width="24px" height="24px" viewBox="0 0 24 24" version="1.1" xmlns="http://www.w3.org/2000/svg" xmlns:xlink="http://www.w3.org/1999/xlink">
    <title>guizeji</title>
    <g id="页面-1" stroke="none" stroke-width="1" fill="none" fill-rule="evenodd">
        <g id="策略项目管理" transform="translate(-1374.000000, -222.000000)" stroke="#0086FF">
            <g id="流程控制" transform="translate(1268.000000, 196.000000)">
                <g id="规则集" transform="translate(88.000000, 26.000000)">
                    <g id="编组" transform="translate(18.000000, 1.000000)">
                        <g id="标准" transform="translate(1.200000, 1.150000)">
                            <path d="M0,7.88571429 L0,3.19673625 L0,3.19673625 L0,1.97142857 C0,0.882638636 0.921014229,0 2.05714286,0 L10.2857143,0 C11.4218429,0 12.3428571,0.882638636 12.3428571,1.97142857 L12.3428571,3.0375326 L12.3428571,3.0375326" id="路径" stroke-width="1.6"></path>
                            <path d="M20.0995297,3.09431671 L1.50595371,3.09431671 C0.677082626,3.09431671 0.00274171481,4.0834291 0.00274171481,5.29920393 L0.00274171481,17.6465723 C0.00274171481,18.8623471 0.677082604,19.8514596 1.50595371,19.8514596 L20.0995297,19.8514596 C20.9284008,19.8514596 21.6027417,18.8623472 21.6027417,17.6465723 L21.6027417,5.29920393 C21.6027417,4.0834291 20.9284008,3.09431671 20.0995297,3.09431671 Z" id="路径备份" stroke-width="1.6" fill-rule="nonzero"></path>
                            <path d="M7.2,13.8 L7.2,12.6285165 L3.43196605,10.8428571 L7.2,9.0571978 L7.2,7.88571429 L2.05714286,10.3651648 L2.05714286,11.3205495 L7.2,13.8 Z M14.4,13.8 L19.5428571,11.3205495 L19.5428571,10.3651648 L14.4,7.88571429 L14.4,9.0571978 L18.1680339,10.8428571 L14.4,12.6285165 L14.4,13.8 Z" id="&lt;&gt;" stroke-width="0.5" fill="#0086FF" fill-rule="nonzero"></path>
                            <path d="M8.56594286,11.9185613 C8.73051429,11.9185613 8.87862857,11.8589562 9.00205714,11.7482611 C9.11725714,11.6290509 9.17485714,11.4842956 9.17485714,11.3054803 C9.17485714,11.126665 9.11725714,10.9819098 9.00205714,10.8712146 C8.88685714,10.7520044 8.73874286,10.7009143 8.56594286,10.7009143 C8.40137143,10.7009143 8.26148571,10.7520044 8.14628571,10.8712146 C8.02285714,10.9819098 7.96525714,11.126665 7.96525714,11.3054803 C7.96525714,11.4757806 8.02285714,11.6205358 8.14628571,11.739746 C8.26148571,11.8589562 8.40137143,11.9185613 8.56594286,11.9185613 Z M10.7958857,11.9185613 C10.9604571,11.9185613 11.1085714,11.8589562 11.232,11.7482611 C11.3472,11.6290509 11.4048,11.4842956 11.4048,11.3054803 C11.4048,11.126665 11.3472,10.9819098 11.232,10.8712146 C11.1168,10.7520044 10.9686857,10.7009143 10.7958857,10.7009143 C10.6313143,10.7009143 10.4914286,10.7520044 10.3762286,10.8712146 C10.2528,10.9819098 10.1952,11.126665 10.1952,11.3054803 C10.1952,11.4757806 10.2528,11.6205358 10.3762286,11.739746 C10.4914286,11.8589562 10.6313143,11.9185613 10.7958857,11.9185613 Z M13.0258286,11.9185613 C13.1904,11.9185613 13.3385143,11.8589562 13.4537143,11.7482611 C13.5689143,11.6290509 13.6347429,11.4842956 13.6347429,11.3054803 C13.6347429,11.126665 13.5771429,10.9819098 13.4619429,10.8712146 C13.3467429,10.7520044 13.1986286,10.7009143 13.0258286,10.7009143 C12.8612571,10.7009143 12.7131429,10.7520044 12.5979429,10.8712146 C12.4827429,10.9819098 12.4251429,11.126665 12.4251429,11.3054803 C12.4251429,11.4757806 12.4827429,11.6205358 12.5979429,11.739746 C12.7131429,11.8589562 12.8612571,11.9185613 13.0258286,11.9185613 Z" id="…" stroke-width="0.4" fill="#0086FF" fill-rule="nonzero"></path>
                        </g>
                    </g>
                </g>
            </g>
        </g>
    </g>
</svg>