<?xml version="1.0" encoding="UTF-8"?>
<svg width="24px" height="24px" viewBox="0 0 24 24" version="1.1" xmlns="http://www.w3.org/2000/svg" xmlns:xlink="http://www.w3.org/1999/xlink">
    <title>tongyong</title>
    <g id="页面-1" stroke="none" stroke-width="1" fill="none" fill-rule="evenodd">
        <g id="策略项目管理" transform="translate(-1374.000000, -331.000000)" fill="#0086FF" fill-rule="nonzero">
            <g id="流程控制" transform="translate(1268.000000, 196.000000)">
                <g id="通用" transform="translate(94.000000, 135.000000)">
                    <g id="编组" transform="translate(12.000000, 0.000000)">
                        <g id="业务" transform="translate(1.200000, 1.150000)">
                            <path d="M8.56698836,6.24829298 C8.56698836,5.81844285 8.92965583,5.46998045 9.37702884,5.46998045 L15.7655483,5.46998045 C16.2129213,5.46998045 16.5755887,5.81844285 16.5755887,6.24829298 C16.5755887,6.67814311 16.2129213,7.02660551 15.7655483,7.02660551 L9.37702884,7.02660551 C8.92965583,7.02660551 8.56698836,6.67814311 8.56698836,6.24829298 Z M9.37702884,9.5379606 L15.7655483,9.5379606 C16.2129213,9.5379606 16.5755888,9.18949821 16.5755888,8.75964807 C16.5755888,8.32979793 16.2129213,7.98133554 15.7655483,7.98133554 L9.37702884,7.98133554 C8.92965582,7.98133554 8.56698833,8.32979793 8.56698833,8.75964807 C8.56698833,9.18949821 8.92965582,9.5379606 9.37702884,9.5379606 L9.37702884,9.5379606 Z M21.6,14.5648218 L21.6,19.0292224 C21.6,19.9507445 20.8191209,20.7 19.8611131,20.7 L1.73888695,20.7 C0.779798985,20.7 0,19.9497067 0,19.0292224 L0,14.5648218 C0,13.9940593 0.300255004,13.4897127 0.754957754,13.1887652 L0.754957754,4.29420966 C0.756743106,2.87870789 1.95056638,1.73164474 3.42377119,1.72992932 L4.45630283,1.72992932 C4.82424192,0.697662821 5.83290719,0.0030860673 6.96850843,0 L18.1783889,0 C19.6517684,0.00228691839 20.8454184,1.14964767 20.8472024,2.5653181 L20.8472024,13.1877275 C21.300825,13.4907505 21.6,13.9940593 21.6,14.5648218 Z M5.91761589,2.5653181 L5.91761589,12.8919687 L7.7979899,12.8919687 C8.21352162,12.8920429 8.56160298,13.1942114 8.60371018,13.5914123 C8.64691234,13.999248 9.50339517,14.5658595 10.79946,14.5658595 C12.0955248,14.5658595 12.9520076,13.9982102 12.9952098,13.5914123 C13.037317,13.1942114 13.3853983,12.8920429 13.80093,12.8919687 L19.2238812,12.8919687 L19.2238812,2.5653181 C19.2232872,2.00887384 18.7542756,1.55776853 18.1751487,1.55662506 L6.96634832,1.55662506 C6.38746765,1.55833707 5.91880182,2.00910979 5.91761589,2.5653181 Z M2.37395869,4.29420966 L2.37395869,12.8919687 L4.29645482,12.8919687 L4.29645482,3.28759212 L3.42161108,3.28759212 C2.84350157,3.28873388 2.375147,3.73874376 2.37395869,4.29420966 Z M19.9799239,14.5648218 C19.9802071,14.5343673 19.9678175,14.5050648 19.9455057,14.4834321 C19.923194,14.4617994 19.8928104,14.4496315 19.8611131,14.4496315 L14.3884794,14.4496315 C13.8581729,15.4396451 12.459503,16.1235223 10.80054,16.1235223 C9.14157709,16.1235223 7.74290715,15.4396451 7.21044053,14.4496315 L1.73888695,14.4496315 C1.70718963,14.4496315 1.67680604,14.4617994 1.65449429,14.4834321 C1.63218255,14.5050648 1.61979285,14.5343673 1.62007609,14.5648218 L1.62007609,19.0292224 C1.62007609,19.0935629 1.6719236,19.1433749 1.73888695,19.1433749 L19.8611131,19.1433749 C19.9267278,19.1433749 19.9799239,19.0922671 19.9799239,19.0292224 L19.9799239,14.5648218 Z" id="形状"></path>
                        </g>
                    </g>
                </g>
            </g>
        </g>
    </g>
</svg>