<?xml version="1.0" encoding="UTF-8"?>
<svg width="24px" height="24px" viewBox="0 0 24 24" version="1.1" xmlns="http://www.w3.org/2000/svg" xmlns:xlink="http://www.w3.org/1999/xlink">
    <title>项目00</title>
    <g id="页面-1" stroke="none" stroke-width="1" fill="none" fill-rule="evenodd">
        <g id="策略项目管理" transform="translate(-154.000000, -414.000000)" fill="#0086FF" fill-rule="nonzero">
            <g id="编组-14" transform="translate(154.000000, 414.000000)">
                <g id="项目00" transform="translate(0.000000, 0.000000)">
                    <path d="M9.68257609,12.4212838 L0.827296641,12.4212838 C0.371672937,12.4212838 0,12.7892324 0,13.2386124 L0,21.9826714 C0,22.4320513 0.372436126,22.8 0.827296641,22.8 L9.68333928,22.8 C10.1381998,22.8 10.5106359,22.4320513 10.5106359,21.9826714 L10.5106359,13.279328 C10.5098727,12.7892324 10.1374366,12.4212838 9.68257609,12.4212838 L9.68257609,12.4212838 L9.68257609,12.4212838 L9.68257609,12.4212838 Z M23.172701,12.4212838 L14.3174216,12.4212838 C13.8625611,12.4212838 13.4901249,12.7892324 13.4901249,13.2386124 L13.4901249,21.9826714 C13.4901249,22.4320513 13.8625611,22.8 14.3174216,22.8 L23.172701,22.8 C23.6283247,22.8 23.9999988,22.4320513 23.9999988,21.9826714 L23.9999988,13.279328 C24.0007609,12.7892324 23.6283247,12.4212838 23.172701,12.4212838 L23.172701,12.4212838 L23.172701,12.4212838 L23.172701,12.4212838 Z M23.172701,0 L14.3174216,0 C13.8625611,0 13.4901249,0.367948676 13.4901249,0.817328615 L13.4901249,9.52067198 C13.4901249,9.97005192 13.8625611,10.3380006 14.3174216,10.3380006 L23.172701,10.3380006 C23.6283247,10.3380006 23.9999988,9.97005192 23.9999988,9.52067198 L23.9999988,0.816574622 C24.0007609,0.367194682 23.6283247,0 23.172701,0 L23.172701,0 L23.172701,0 Z M22.7178405,8.29467906 C22.7178405,8.744059 22.3454044,9.11200767 21.8905439,9.11200767 L15.5591297,9.11200767 C15.103506,9.11200767 14.7310699,8.744059 14.7310699,8.29467906 L14.7310699,2.08328318 C14.7310699,1.63390324 15.103506,1.26595456 15.5591297,1.26595456 L21.8905439,1.26595456 C22.3454044,1.26595456 22.7178405,1.63390324 22.7178405,2.08328318 L22.7178405,8.29467906 L22.7178405,8.29467906 L22.7178405,8.29467906 Z M9.68257609,0 L0.827296641,0 C0.371672937,0 0,0.367948676 0,0.817328615 L0,9.52067198 C0,9.97005192 0.372436126,10.3380006 0.827296641,10.3380006 L9.68333928,10.3380006 C10.1381998,10.3380006 10.5106359,9.97005192 10.5106359,9.52067198 L10.5106359,0.816574622 C10.5098727,0.367194682 10.1374366,0 9.68257609,0 L9.68257609,0 L9.68257609,0 Z" id="形状"></path>
                </g>
            </g>
        </g>
    </g>
</svg>